<?xml version="1.0" encoding="UTF-8"?>
<svg id="Layer_1" xmlns="http://www.w3.org/2000/svg" version="1.1" viewBox="0 0 1080 151">
  <!-- Generator: Adobe Illustrator 29.7.1, SVG Export Plug-In . SVG Version: 2.1.1 Build 8)  -->
  <defs>
    <style>
      .st0 {
        fill: #1b1c1c;
      }
    </style>
  </defs>
  <g id="KAIYI_Logo">
    <path class="st0" d="M355.95,8.8h-51.25l-120.02,30.32L65.42,8.85H13.5l92.46,50.35-25.89,6.69,104.78,76.31,104.67-76.37-26.04-6.69,92.46-50.34ZM184.72,101.86l-60.02-32.56,30.51-9.34L47.65,16.43h25.53l111.54,34.65,111.82-34.48h25.22l-107.68,43.3,30.45,9.46-59.81,32.5Z"/>
    <polygon class="st0" points="385.57 38.37 385.57 123.06 427.15 123.06 521.86 54.34 491.25 92.46 533.79 123.06 574.41 123.06 518.78 83.02 548.23 38.37 503.18 38.37 413.1 103.43 413.1 38.37 385.57 38.37"/>
    <polygon class="st0" points="1066.5 123.06 1066.5 38.37 1024.92 38.37 930.21 107.09 960.82 68.97 918.28 38.37 877.66 38.37 933.29 78.4 903.84 123.06 948.89 123.06 1038.97 58 1038.97 123.06 1066.5 123.06"/>
    <polygon class="st0" points="596.22 123.06 679.28 38.17 722.11 38.17 799.98 123.06 764.17 123.06 698.82 56.17 637.03 123.06 596.22 123.06"/>
    <rect class="st0" x="822.15" y="38.17" width="27.08" height="84.89"/>
  </g>
</svg>