<?xml version="1.0" encoding="UTF-8"?>
<svg id="Layer_1" xmlns="http://www.w3.org/2000/svg" version="1.1" viewBox="0 0 1080 151">
  <!-- Generator: Adobe Illustrator 29.7.1, SVG Export Plug-In . SVG Version: 2.1.1 Build 8)  -->
  <defs>
    <style>
      .st0 {
        fill: #a71f36;
      }

      .st1 {
        fill: #231715;
      }
    </style>
  </defs>
  <polygon class="st1" points="155.81 77.3 219.6 133.79 171.28 133.79 127.79 95.27 67.7 133.79 6 133.79 101.89 72.35 40.25 17.77 88.57 17.77 129.91 54.38 187.02 17.77 248.72 17.77 155.81 77.3"/>
  <path class="st1" d="M281.38,42.54s-3.16-.16-3.16-2.92,1.56-9.23,4.35-11.03,12.78-8.31,13.66-8.75,4.35-2.16,7.27-2.16h152.8s7.04-.09,8.99,5.93c1.95,6.02,2.52,7.85,2.52,10.16s-.6,5.8-1.56,8.36-24.85,75.74-24.85,75.74c0,0-1.36,4.71-5.51,7.51s-8.87,8.23-15.74,8.23h-166.99s-4.79-.08-4.79-4.39c0-1.52,1.12-8.71,7.03-12.22s9.43-5.83,10.31-6.23,3.04-1.28,5.51-1.28h130.39s3.76.48,5.11-2.88,5.19-15.58,5.19-15.58c0,0,1.44-4.15-2.96-4.15h-141.42s-3.12-.48-3.12-3.76c0-1.68.96-6.31,2.24-8.63s5.75-6.55,11.43-8.95,6.07-2.8,9.99-2.8h126.8s3.36-.4,4.87-3.99,3.84-11.51,3.84-11.51c0,0,1.36-3.99-3.04-3.99s-139.18-.72-139.18-.72Z"/>
  <path class="st0" d="M564.05,17.21h164.31v59.68s-.96,14.86-15.58,14.86c-2.94-2.94-17.5-20.25-17.5-20.25v-36.43h-98.87v38.71h87.97v-7.07l20.97,25.05h-109.18v41.47h-32.12V17.21Z"/>
  <path class="st0" d="M748.14,57.84h31.52v20.25l100.55-20.25v25.77s-1.32-4.19-8.51-4.19-91.56,16.54-91.56,16.54v37.27h-32V57.84Z"/>
  <path class="st0" d="M900.34,57.84h173.66v62.8s-.36,12.58-17.02,12.58c-7.49-7.49-17.02-20.01-17.02-20.01l1.56-1.44v-36.67h-110.02v40.15h96.36v-6.95l20.73,24.93h-148.25V57.84Z"/>
</svg>