<?xml version="1.0" encoding="UTF-8"?>
<svg id="Layer_1" xmlns="http://www.w3.org/2000/svg" version="1.1" viewBox="0 0 554 151">
  <!-- Generator: Adobe Illustrator 29.7.1, SVG Export Plug-In . SVG Version: 2.1.1 Build 8)  -->
  <defs>
    <style>
      .st0 {
        fill: #a71f36;
      }

      .st1 {
        fill: #231715;
      }
    </style>
  </defs>
  <polygon class="st1" points="179.86 76.48 253.03 141.28 197.6 141.28 147.71 97.1 78.78 141.28 8 141.28 118 70.81 47.29 8.2 102.72 8.2 150.14 50.19 215.66 8.2 286.44 8.2 179.86 76.48"/>
  <path class="st0" d="M319.77,35.99s-3.13-.93-3.13-3.63,2.28-11.83,6.84-14.25c4.56-2.42,11.68-6.84,13.89-8.12,2.21-1.28,5.56-2.99,7.41-2.99h185.78s11.45,2.26,11.45,15.08v7.98s-.81,4.75-1.67,7.88-27.92,81.68-27.92,81.68c0,0-4.08,8.07-8.07,11.11-3.99,3.04-5.89,5.6-8.17,6.84s-3.42,2.18-9.97,2.18h-15.48s-8.83-1.04-8.83-6.17c0-1.33,3.89-16.24,7.22-26.12s16.81-54.04,18.33-57.65c1.52-3.61,5.41-13.11.57-13.11s-168.24-.71-168.24-.71Z"/>
</svg>